cl__1 = 850;
lc = 11.5;
Point(1) = {-10798.525, 0, 0, cl__1};
Point(2) = {11201.475, 0, 0, cl__1};
Point(3) = {201.4750000000007, 11000, 0, cl__1};
Point(9) = {11148.507001576, 0, 1078.188546424, cl__1};
Point(10) = {10990.113090912, 0, 2145.993541736, cl__1};
Point(11) = {10727.818702776, 0, 3193.131444712, cl__1};
Point(12) = {10364.14986608, 0, 4209.517754288, cl__1};
Point(13) = {9902.608908400001, 0, 5185.364102864, cl__1};
Point(14) = {9347.640726016001, 0, 6111.272566608, cl__1};
Point(15) = {8704.589992503999, 0, 6978.326124088, cl__1};
Point(16) = {7979.649595311999, 0, 7778.174595312, cl__1};
Point(17) = {7179.801124088001, 0, 8503.114992503999, cl__1};
Point(18) = {6312.747566608, 0, 9146.165726016001, cl__1};
Point(19) = {5386.839102864, 0, 9701.133908400001, cl__1};
Point(20) = {4410.992754288, 0, 10162.67486608, cl__1};
Point(21) = {3394.606444712001, 0, 10526.343702776, cl__1};
Point(22) = {2347.468541736001, 0, 10788.638090912, cl__1};
Point(23) = {1279.663546423999, 0, 10947.032001576, cl__1};
Point(24) = {201.4750000000004, 0, 10999.999994544, cl__1};
Point(25) = {-876.713546424, 0, 10947.032001576, cl__1};
Point(26) = {-1944.518541736, 0, 10788.638090912, cl__1};
Point(27) = {-2991.656444712, 0, 10526.343702776, cl__1};
Point(28) = {-4008.042754288, 0, 10162.67486608, cl__1};
Point(29) = {-4983.889102864, 0, 9701.133908400001, cl__1};
Point(30) = {-5909.797566607999, 0, 9146.165726016001, cl__1};
Point(31) = {-6776.851124088, 0, 8503.114992503999, cl__1};
Point(32) = {-7576.699595311999, 0, 7778.174595312, cl__1};
Point(33) = {-8301.639992503999, 0, 6978.326124088, cl__1};
Point(34) = {-8944.690726016001, 0, 6111.272566608, cl__1};
Point(35) = {-9499.658908400001, 0, 5185.364102864, cl__1};
Point(36) = {-9961.19986608, 0, 4209.517754288, cl__1};
Point(37) = {-10324.868702776, 0, 3193.131444712, cl__1};
Point(38) = {-10587.163090912, 0, 2145.993541736, cl__1};
Point(39) = {-10745.557001576, 0, 1078.188546424, cl__1};
Point(41) = {-10745.557001576, 0, -1078.188546423999, cl__1};
Point(42) = {-10587.163090912, 0, -2145.993541736, cl__1};
Point(43) = {-10324.868702776, 0, -3193.131444712, cl__1};
Point(44) = {-9961.19986608, 0, -4209.517754287999, cl__1};
Point(45) = {-9499.658908400001, 0, -5185.364102864, cl__1};
Point(46) = {-8944.690726016001, 0, -6111.272566608, cl__1};
Point(47) = {-8301.639992503999, 0, -6978.326124088, cl__1};
Point(48) = {-7576.699595311999, 0, -7778.174595311999, cl__1};
Point(49) = {-6776.851124088, 0, -8503.114992503999, cl__1};
Point(50) = {-5909.797566607999, 0, -9146.165726016001, cl__1};
Point(51) = {-4983.889102864, 0, -9701.133908400001, cl__1};
Point(52) = {-4008.042754288, 0, -10162.67486608, cl__1};
Point(53) = {-2991.656444712, 0, -10526.343702776, cl__1};
Point(54) = {-1944.518541736, 0, -10788.638090912, cl__1};
Point(55) = {-876.713546424, 0, -10947.032001576, cl__1};
Point(56) = {201.4750000000004, 0, -10999.999994544, cl__1};
Point(57) = {1279.663546423999, 0, -10947.032001576, cl__1};
Point(58) = {2347.468541736001, 0, -10788.638090912, cl__1};
Point(59) = {3394.606444712001, 0, -10526.343702776, cl__1};
Point(60) = {4410.992754288, 0, -10162.67486608, cl__1};
Point(61) = {5386.839102864, 0, -9701.133908400001, cl__1};
Point(62) = {6312.747566608, 0, -9146.165726016001, cl__1};
Point(63) = {7179.801124088001, 0, -8503.114992503999, cl__1};
Point(64) = {7979.649595311999, 0, -7778.174595311999, cl__1};
Point(65) = {8704.589992503999, 0, -6978.326124088, cl__1};
Point(66) = {9347.640726016001, 0, -6111.272566608, cl__1};
Point(67) = {9902.608908400001, 0, -5185.364102864, cl__1};
Point(68) = {10364.14986608, 0, -4209.517754287999, cl__1};
Point(69) = {10727.818702776, 0, -3193.131444712, cl__1};
Point(70) = {10990.113090912, 0, -2145.993541736, cl__1};
Point(71) = {11148.507001576, 0, -1078.188546423999, cl__1};
Point(72) = {0, 0, 0, lc};
Point(73) = {5.306740152000771, 0, 11.28969591200043, cl__1};
Point(74) = {15.96823504000062, 0, 18.2164047999998, cl__1};
Point(75) = {28.23273792800086, 0, 21.79845976000035, cl__1};
Point(76) = {40.83300420000049, 0, 24.01014325599982, cl__1};
Point(77) = {91.60614525600084, 0, 30.35326817599986, cl__1};
Point(78) = {193.7206937040003, 0, 37.09799112799986, cl__1};
Point(79) = {398.3616523359994, 0, 37.52303315200045, cl__1};
Point(80) = {602.5306364320004, 0, 23.10898559199956, cl__1};
Point(81) = {704.3641241440007, 0, 12.8646512719995, cl__1};
Point(82) = {762.4066838399998, 0, 5.690411231999406, cl__1};
Point(84) = {765.3062358799993, 0, -5.311099464000696, cl__1};
Point(85) = {704.3641241440007, 0, -12.8646512719995, cl__1};
Point(86) = {602.5306364320004, 0, -23.10898559199956, cl__1};
Point(87) = {398.3616523359994, 0, -37.52303315199921, cl__1};
Point(88) = {193.7206937040003, 0, -37.09799112799986, cl__1};
Point(89) = {91.60614525600084, 0, -30.35326817599986, cl__1};
Point(90) = {40.83300420000049, 0, -24.01014325599982, cl__1};
Point(91) = {28.23273792800086, 0, -21.79845975999912, cl__1};
Point(92) = {15.96823504000062, 0, -18.2164047999998, cl__1};
Point(93) = {5.306740152000771, 0, -11.28969591200043, cl__1};
Point(96) = {1143.761127, 1196.3, 0, lc};
Point(97) = {805.9, 0, 0, lc};
Point(100) = {690.684127, 1196.3, 0, lc};
p2 = newp;
Point(p2 + 1) = {201.475, 0, 0};

p73 = newp;
Point(p73 + 1) = {0.02197905566030927, 0, 0.5984582680999565, lc};
Point(p73 + 2) = {0.06957074904036152, 0, 1.19334038119992, lc};
Point(p73 + 3) = {0.1427795121404107, 0, 1.78464633929989, lc};
Point(p73 + 4) = {0.2416053449604567, 0, 2.372376142399867, lc};
Point(p73 + 5) = {0.3660482475004996, 0, 2.956529790499851, lc};
Point(p73 + 6) = {0.5161082197605393, 0, 3.537107283599842, lc};
Point(p73 + 7) = {0.691785261740576, 0, 4.114108621699838, lc};
Point(p73 + 8) = {0.8930793734406097, 0, 4.687533804799844, lc};
Point(p73 + 9) = {1.11999055486064, 0, 5.257382832899854, lc};
Point(p73 + 10) = {1.372518806000667, 0, 5.823655705999872, lc};
Point(p73 + 11) = {1.650664126860692, 0, 6.386352424099898, lc};
Point(p73 + 12) = {1.954426517440713, 0, 6.945472987199929, lc};
Point(p73 + 13) = {2.283805977740731, 0, 7.501017395299968, lc};
Point(p73 + 14) = {2.638802507760745, 0, 8.052985648400012, lc};
Point(p73 + 15) = {3.019416107500757, 0, 8.601377746500065, lc};
Point(p73 + 16) = {3.425646776960766, 0, 9.146193689600125, lc};
Point(p73 + 17) = {3.857494516140771, 0, 9.687433477700189, lc};
Point(p73 + 18) = {4.314959325040775, 0, 10.22509711080026, lc};
Point(p73 + 19) = {4.798041203660773, 0, 10.75918458890034, lc};
p74 = newp;
Point(p74 + 1) = {5.728173571220678, 0, 11.70725350278039, lc};
Point(p74 + 2) = {6.161358708880591, 0, 12.11731402552036, lc};
Point(p74 + 3) = {6.606295564980512, 0, 12.51987748022032, lc};
Point(p74 + 4) = {7.062984139520443, 0, 12.91494386688029, lc};
Point(p74 + 5) = {7.531424432500385, 0, 13.30251318550025, lc};
Point(p74 + 6) = {8.011616443920335, 0, 13.68258543608022, lc};
Point(p74 + 7) = {8.503560173780295, 0, 14.05516061862019, lc};
Point(p74 + 8) = {9.007255622080262, 0, 14.42023873312015, lc};
Point(p74 + 9) = {9.522702788820242, 0, 14.77781977958012, lc};
Point(p74 + 10) = {10.04990167400023, 0, 15.12790375800009, lc};
Point(p74 + 11) = {10.58885227762023, 0, 15.47049066838006, lc};
Point(p74 + 12) = {11.13955459968023, 0, 15.80558051072003, lc};
Point(p74 + 13) = {11.70200864018025, 0, 16.13317328502, lc};
Point(p74 + 14) = {12.27621439912027, 0, 16.45326899127997, lc};
Point(p74 + 15) = {12.86217187650031, 0, 16.76586762949994, lc};
Point(p74 + 16) = {13.45988107232035, 0, 17.07096919967992, lc};
Point(p74 + 17) = {14.0693419865804, 0, 17.36857370181989, lc};
Point(p74 + 18) = {14.69055461928046, 0, 17.65868113591986, lc};
Point(p74 + 19) = {15.32351897042054, 0, 17.94129150197983, lc};
p75 = newp;
Point(p75 + 1) = {16.46776723162062, 0, 18.42092657943978, lc};
Point(p75 + 2) = {16.97926710248063, 0, 18.62277267135976, lc};
Point(p75 + 3) = {17.50273465258064, 0, 18.82194307575974, lc};
Point(p75 + 4) = {18.03816988192064, 0, 19.01843779263973, lc};
Point(p75 + 5) = {18.58557279050065, 0, 19.21225682199973, lc};
Point(p75 + 6) = {19.14494337832066, 0, 19.40340016383973, lc};
Point(p75 + 7) = {19.71628164538067, 0, 19.59186781815974, lc};
Point(p75 + 8) = {20.29958759168068, 0, 19.77765978495975, lc};
Point(p75 + 9) = {20.89486121722069, 0, 19.96077606423977, lc};
Point(p75 + 10) = {21.5021025220007, 0, 20.1412166559998, lc};
Point(p75 + 11) = {22.12131150602071, 0, 20.31898156023983, lc};
Point(p75 + 12) = {22.75248816928073, 0, 20.49407077695986, lc};
Point(p75 + 13) = {23.39563251178074, 0, 20.66648430615991, lc};
Point(p75 + 14) = {24.05074453352076, 0, 20.83622214783995, lc};
Point(p75 + 15) = {24.71782423450077, 0, 21.003284302, lc};
Point(p75 + 16) = {25.39687161472078, 0, 21.16767076864006, lc};
Point(p75 + 17) = {26.0878866741808, 0, 21.32938154776012, lc};
Point(p75 + 18) = {26.79086941288082, 0, 21.4884166393602, lc};
Point(p75 + 19) = {27.50581983082084, 0, 21.64477604344027, lc};
p76 = newp;
Point(p76 + 1) = {28.70035328412078, 0, 21.89464129754031, lc};
Point(p76 + 2) = {29.18506316208072, 0, 21.99233890216026, lc};
Point(p76 + 3) = {29.68686756188066, 0, 22.09155257386022, lc};
Point(p76 + 4) = {30.20576648352061, 0, 22.19228231264017, lc};
Point(p76 + 5) = {30.74175992700055, 0, 22.29452811850014, lc};
Point(p76 + 6) = {31.29484789232051, 0, 22.3982899914401, lc};
Point(p76 + 7) = {31.86503037948047, 0, 22.50356793146006, lc};
Point(p76 + 8) = {32.45230738848043, 0, 22.61036193856003, lc};
Point(p76 + 9) = {33.05667891932041, 0, 22.71867201274, lc};
Point(p76 + 10) = {33.67814497200039, 0, 22.82849815399997, lc};
Point(p76 + 11) = {34.31670554652037, 0, 22.93984036233995, lc};
Point(p76 + 12) = {34.97236064288037, 0, 23.05269863775992, lc};
Point(p76 + 13) = {35.64511026108036, 0, 23.1670729802599, lc};
Point(p76 + 14) = {36.33495440112037, 0, 23.28296338983989, lc};
Point(p76 + 15) = {37.04189306300037, 0, 23.40036986649987, lc};
Point(p76 + 16) = {37.76592624672038, 0, 23.51929241023985, lc};
Point(p76 + 17) = {38.50705395228041, 0, 23.63973102105984, lc};
Point(p76 + 18) = {39.26527617968043, 0, 23.76168569895983, lc};
Point(p76 + 19) = {40.04059292892046, 0, 23.88515644393982, lc};
p77 = newp;
Point(p77 + 1) = {43.15422045340043, 0, 24.37048837805978, lc};
Point(p77 + 2) = {45.49832521200038, 0, 24.72628730263974, lc};
Point(p77 + 3) = {47.86531847580032, 0, 25.07754002973971, lc};
Point(p77 + 4) = {50.25520024480029, 0, 25.42424655935968, lc};
Point(p77 + 5) = {52.66797051900026, 0, 25.76640689149966, lc};
Point(p77 + 6) = {55.10362929840024, 0, 26.10402102615964, lc};
Point(p77 + 7) = {57.56217658300022, 0, 26.43708896333963, lc};
Point(p77 + 8) = {60.04361237280021, 0, 26.76561070303962, lc};
Point(p77 + 9) = {62.54793666780022, 0, 27.08958624525961, lc};
Point(p77 + 10) = {65.07514946800023, 0, 27.40901558999961, lc};
Point(p77 + 11) = {67.62525077340025, 0, 27.72389873725962, lc};
Point(p77 + 12) = {70.19824058400029, 0, 28.03423568703963, lc};
Point(p77 + 13) = {72.79411889980032, 0, 28.34002643933964, lc};
Point(p77 + 14) = {75.41288572080038, 0, 28.64127099415965, lc};
Point(p77 + 15) = {78.05454104700044, 0, 28.93796935149968, lc};
Point(p77 + 16) = {80.71908487840051, 0, 29.23012151135971, lc};
Point(p77 + 17) = {83.40651721500058, 0, 29.51772747373974, lc};
Point(p77 + 18) = {86.11683805680065, 0, 29.80078723863977, lc};
Point(p77 + 19) = {88.85004740380074, 0, 30.07930080605982, lc};
p78 = newp;
Point(p78 + 1) = {96.03060964056078, 0, 30.77942545941981, lc};
Point(p78 + 2) = {100.5267859238407, 0, 31.19622262327977, lc};
Point(p78 + 3) = {105.0946741058406, 0, 31.60365966757973, lc};
Point(p78 + 4) = {109.7342741865606, 0, 32.0017365923197, lc};
Point(p78 + 5) = {114.4455861660005, 0, 32.39045339749968, lc};
Point(p78 + 6) = {119.2286100441605, 0, 32.76981008311966, lc};
Point(p78 + 7) = {124.0833458210405, 0, 33.13980664917964, lc};
Point(p78 + 8) = {129.0097934966404, 0, 33.50044309567963, lc};
Point(p78 + 9) = {134.0079530709604, 0, 33.85171942261962, lc};
Point(p78 + 10) = {139.0778245440004, 0, 34.19363562999962, lc};
Point(p78 + 11) = {144.2194079157603, 0, 34.52619171781962, lc};
Point(p78 + 12) = {149.4327031862403, 0, 34.84938768607963, lc};
Point(p78 + 13) = {154.7177103554403, 0, 35.16322353477964, lc};
Point(p78 + 14) = {160.0744294233603, 0, 35.46769926391966, lc};
Point(p78 + 15) = {165.5028603900003, 0, 35.76281487349968, lc};
Point(p78 + 16) = {171.0030032553603, 0, 36.04857036351971, lc};
Point(p78 + 17) = {176.5748580194403, 0, 36.32496573397974, lc};
Point(p78 + 18) = {182.2184246822403, 0, 36.59200098487977, lc};
Point(p78 + 19) = {187.9337032437603, 0, 36.84967611621982, lc};
p79 = newp;
Point(p79 + 1) = {204.2313558363004, 0, 37.51742713245985, lc};
Point(p79 + 2) = {214.7126901580004, 0, 37.89494904183985, lc};
Point(p79 + 3) = {225.1646966691004, 0, 38.23055685613985, lc};
Point(p79 + 4) = {235.5873753696004, 0, 38.52425057535985, lc};
Point(p79 + 5) = {245.9807262595004, 0, 38.77603019949986, lc};
Point(p79 + 6) = {256.3447493388005, 0, 38.98589572855987, lc};
Point(p79 + 7) = {266.6794446075004, 0, 39.15384716253988, lc};
Point(p79 + 8) = {276.9848120656004, 0, 39.2798845014399, lc};
Point(p79 + 9) = {287.2608517131004, 0, 39.36400774525993, lc};
Point(p79 + 10) = {297.5075635500003, 0, 39.40621689399995, lc};
Point(p79 + 11) = {307.7249475763003, 0, 39.40651194765999, lc};
Point(p79 + 12) = {317.9130037920003, 0, 39.36489290624002, lc};
Point(p79 + 13) = {328.0717321971001, 0, 39.28135976974006, lc};
Point(p79 + 14) = {338.2011327916001, 0, 39.1559125381601, lc};
Point(p79 + 15) = {348.3012055755, 0, 38.98855121150015, lc};
Point(p79 + 16) = {358.3719505487999, 0, 38.77927578976021, lc};
Point(p79 + 17) = {368.4133677114999, 0, 38.52808627294026, lc};
Point(p79 + 18) = {378.4254570635997, 0, 38.23498266104032, lc};
Point(p79 + 19) = {388.4082186050996, 0, 37.89996495406039, lc};
p80 = newp;
Point(p80 + 1) = {406.6652668380394, 0, 37.17500258230042, lc};
Point(p80 + 2) = {415.1693902561594, 0, 36.78774340120037, lc};
Point(p80 + 3) = {423.8740225903595, 0, 36.36125560870033, lc};
Point(p80 + 4) = {432.7791638406396, 0, 35.89553920480029, lc};
Point(p80 + 5) = {441.8848140069996, 0, 35.39059418950025, lc};
Point(p80 + 6) = {451.1909730894396, 0, 34.84642056280021, lc};
Point(p80 + 7) = {460.6976410879597, 0, 34.26301832470016, lc};
Point(p80 + 8) = {470.4048180025597, 0, 33.64038747520012, lc};
Point(p80 + 9) = {480.3125038332398, 0, 32.97852801430007, lc};
Point(p80 + 10) = {490.4206985799998, 0, 32.27743994200004, lc};
Point(p80 + 11) = {500.7294022428399, 0, 31.53712325829999, lc};
Point(p80 + 12) = {511.2386148217599, 0, 30.75757796319994, lc};
Point(p80 + 13) = {521.94833631676, 0, 29.9388040566999, lc};
Point(p80 + 14) = {532.8585667278401, 0, 29.08080153879985, lc};
Point(p80 + 15) = {543.9693060550001, 0, 28.18357040949981, lc};
Point(p80 + 16) = {555.2805542982401, 0, 27.24711066879976, lc};
Point(p80 + 17) = {566.7923114575602, 0, 26.27142231669971, lc};
Point(p80 + 18) = {578.5045775329602, 0, 25.25650535319966, lc};
Point(p80 + 19) = {590.4173525244404, 0, 24.20235977829961, lc};
p81 = newp;
Point(p81 + 1) = {608.1091091700804, 0, 22.59822193595956, lc};
Point(p81 + 2) = {613.6363399763203, 0, 22.08730532623956, lc};
Point(p81 + 3) = {619.1123288507204, 0, 21.57623576283954, lc};
Point(p81 + 4) = {624.5370757932803, 0, 21.06501324575954, lc};
Point(p81 + 5) = {629.9105808040003, 0, 20.55363777499954, lc};
Point(p81 + 6) = {635.2328438828803, 0, 20.04210935055954, lc};
Point(p81 + 7) = {640.5038650299202, 0, 19.53042797243954, lc};
Point(p81 + 8) = {645.7236442451203, 0, 19.01859364063952, lc};
Point(p81 + 9) = {650.8921815284804, 0, 18.50660635515952, lc};
Point(p81 + 10) = {656.0094768800003, 0, 17.99446611599952, lc};
Point(p81 + 11) = {661.0755302996803, 0, 17.48217292315952, lc};
Point(p81 + 12) = {666.0903417875203, 0, 16.96972677663952, lc};
Point(p81 + 13) = {671.0539113435204, 0, 16.45712767643951, lc};
Point(p81 + 14) = {675.9662389676804, 0, 15.94437562255951, lc};
Point(p81 + 15) = {680.8273246600004, 0, 15.43147061499951, lc};
Point(p81 + 16) = {685.6371684204805, 0, 14.91841265375951, lc};
Point(p81 + 17) = {690.3957702491205, 0, 14.40520173883951, lc};
Point(p81 + 18) = {695.1031301459207, 0, 13.8918378702395, lc};
Point(p81 + 19) = {699.7592481108807, 0, 13.3783210479595, lc};
p82 = newp;
Point(p82 + 1) = {706.6338326334007, 0, 12.6083567312995, lc};
Point(p82 + 2) = {708.9701115960007, 0, 12.34128140519951, lc};
Point(p82 + 3) = {711.3729610318007, 0, 12.06342529369951, lc};
Point(p82 + 4) = {713.8423809408008, 0, 11.77478839679952, lc};
Point(p82 + 5) = {716.3783713230008, 0, 11.47537071449952, lc};
Point(p82 + 6) = {718.9809321784007, 0, 11.16517224679953, lc};
Point(p82 + 7) = {721.6500635070007, 0, 10.84419299369953, lc};
Point(p82 + 8) = {724.3857653088006, 0, 10.51243295519953, lc};
Point(p82 + 9) = {727.1880375838007, 0, 10.16989213129952, lc};
Point(p82 + 10) = {730.0568803320006, 0, 9.816570521999518, lc};
Point(p82 + 11) = {732.9922935534006, 0, 9.452468127299511, lc};
Point(p82 + 12) = {735.9942772480005, 0, 9.077584947199504, lc};
Point(p82 + 13) = {739.0628314158005, 0, 8.691920981699495, lc};
Point(p82 + 14) = {742.1979560568004, 0, 8.295476230799483, lc};
Point(p82 + 15) = {745.3996511710002, 0, 7.888250694499485, lc};
Point(p82 + 16) = {748.6679167584001, 0, 7.470244372799471, lc};
Point(p82 + 17) = {752.0027528190001, 0, 7.041457265699457, lc};
Point(p82 + 18) = {755.4041593528, 0, 6.601889373199441, lc};
Point(p82 + 19) = {758.8721363597999, 0, 6.151540695299424, lc};
p83 = newp;
Point(p83 + 1) = {765.9567538366598, 0, 5.226206164079445, lc};
Point(p83 + 2) = {769.36204449224, 0, 4.780915254719465, lc};
Point(p83 + 3) = {772.62255580674, 0, 4.354538503919503, lc};
Point(p83 + 4) = {775.73828778016, 0, 3.947075911679541, lc};
Point(p83 + 5) = {778.7092404125, 0, 3.558527477999577, lc};
Point(p83 + 6) = {781.5354137037602, 0, 3.188893202879597, lc};
Point(p83 + 7) = {784.2168076539402, 0, 2.838173086319633, lc};
Point(p83 + 8) = {786.7534222630403, 0, 2.506367128319668, lc};
Point(p83 + 9) = {789.1452575310605, 0, 2.193475328879689, lc};
Point(p83 + 10) = {791.3923134580004, 0, 1.899497687999723, lc};
Point(p83 + 11) = {793.4945900438605, 0, 1.624434205679756, lc};
Point(p83 + 12) = {795.4520872886407, 0, 1.368284881919777, lc};
Point(p83 + 13) = {797.2648051923406, 0, 1.131049716719809, lc};
Point(p83 + 14) = {798.9327437549607, 0, 0.9127287100798398, lc};
Point(p83 + 15) = {800.4559029765009, 0, 0.7133218619998631, lc};
Point(p83 + 16) = {801.834282856961, 0, 0.532829172479893, lc};
Point(p83 + 17) = {803.067883396341, 0, 0.3712506415199215, lc};
Point(p83 + 18) = {804.1567045946412, 0, 0.2285862691199503, lc};
Point(p83 + 19) = {805.1007464518613, 0, 0.1048360552799723, lc};
Spline(83) = {72, p73 + 1, p73 + 2, p73 + 3, p73 + 4, p73 + 5, p73 + 6, p73 + 7, p73 + 8, p73 + 9, p73 + 10, p73 + 11, p73 + 12, p73 + 13, p73 + 14, p73 + 15, p73 + 16, p73 + 17, p73 + 18, p73 + 19, 73, p74 + 1, p74 + 2, p74 + 3, p74 + 4, p74 + 5, p74 + 6, p74 + 7, p74 + 8, p74 + 9, p74 + 10, p74 + 11, p74 + 12, p74 + 13, p74 + 14, p74 + 15, p74 + 16, p74 + 17, p74 + 18, p74 + 19, 74, p75 + 1, p75 + 2, p75 + 3, p75 + 4, p75 + 5, p75 + 6, p75 + 7, p75 + 8, p75 + 9, p75 + 10, p75 + 11, p75 + 12, p75 + 13, p75 + 14, p75 + 15, p75 + 16, p75 + 17, p75 + 18, p75 + 19, 75, p76 + 1, p76 + 2, p76 + 3, p76 + 4, p76 + 5, p76 + 6, p76 + 7, p76 + 8, p76 + 9, p76 + 10, p76 + 11, p76 + 12, p76 + 13, p76 + 14, p76 + 15, p76 + 16, p76 + 17, p76 + 18, p76 + 19, 76, p77 + 1, p77 + 2, p77 + 3, p77 + 4, p77 + 5, p77 + 6, p77 + 7, p77 + 8, p77 + 9, p77 + 10, p77 + 11, p77 + 12, p77 + 13, p77 + 14, p77 + 15, p77 + 16, p77 + 17, p77 + 18, p77 + 19, 77, p78 + 1, p78 + 2, p78 + 3, p78 + 4, p78 + 5, p78 + 6, p78 + 7, p78 + 8, p78 + 9, p78 + 10, p78 + 11, p78 + 12, p78 + 13, p78 + 14, p78 + 15, p78 + 16, p78 + 17, p78 + 18, p78 + 19, 78, p79 + 1, p79 + 2, p79 + 3, p79 + 4, p79 + 5, p79 + 6, p79 + 7, p79 + 8, p79 + 9, p79 + 10, p79 + 11, p79 + 12, p79 + 13, p79 + 14, p79 + 15, p79 + 16, p79 + 17, p79 + 18, p79 + 19, 79, p80 + 1, p80 + 2, p80 + 3, p80 + 4, p80 + 5, p80 + 6, p80 + 7, p80 + 8, p80 + 9, p80 + 10, p80 + 11, p80 + 12, p80 + 13, p80 + 14, p80 + 15, p80 + 16, p80 + 17, p80 + 18, p80 + 19, 80, p81 + 1, p81 + 2, p81 + 3, p81 + 4, p81 + 5, p81 + 6, p81 + 7, p81 + 8, p81 + 9, p81 + 10, p81 + 11, p81 + 12, p81 + 13, p81 + 14, p81 + 15, p81 + 16, p81 + 17, p81 + 18, p81 + 19, 81, p82 + 1, p82 + 2, p82 + 3, p82 + 4, p82 + 5, p82 + 6, p82 + 7, p82 + 8, p82 + 9, p82 + 10, p82 + 11, p82 + 12, p82 + 13, p82 + 14, p82 + 15, p82 + 16, p82 + 17, p82 + 18, p82 + 19, 82, p83 + 1, p83 + 2, p83 + 3, p83 + 4, p83 + 5, p83 + 6, p83 + 7, p83 + 8, p83 + 9, p83 + 10, p83 + 11, p83 + 12, p83 + 13, p83 + 14, p83 + 15, p83 + 16, p83 + 17, p83 + 18, p83 + 19, 97};
p84 = newp;
Point(p84 + 1) = {803.8704154922012, 0, -0.2662793881000938, lc};
Point(p84 + 2) = {801.840811997601, 0, -0.5324825220001815, lc};
Point(p84 + 3) = {799.8111984842009, 0, -0.7986094017002626, lc};
Point(p84 + 4) = {797.7815749520006, 0, -1.064660027200338, lc};
Point(p84 + 5) = {795.7519414010005, 0, -1.330634398500407, lc};
Point(p84 + 6) = {793.7222978312003, 0, -1.596532515600469, lc};
Point(p84 + 7) = {791.6926442426002, 0, -1.862354378500526, lc};
Point(p84 + 8) = {789.6629806352, 0, -2.128099987200577, lc};
Point(p84 + 9) = {787.633307009, 0, -2.393769341700621, lc};
Point(p84 + 10) = {785.6036233639999, 0, -2.659362442000659, lc};
Point(p84 + 11) = {783.5739297001998, 0, -2.92487928810069, lc};
Point(p84 + 12) = {781.5442260175997, 0, -3.190319880000716, lc};
Point(p84 + 13) = {779.5145123161996, 0, -3.455684217700735, lc};
Point(p84 + 14) = {777.4847885959996, 0, -3.720972301200747, lc};
Point(p84 + 15) = {775.4550548569995, 0, -3.986184130500755, lc};
Point(p84 + 16) = {773.4253110991995, 0, -4.251319705600756, lc};
Point(p84 + 17) = {771.3955573225994, 0, -4.51637902650075, lc};
Point(p84 + 18) = {769.3657935271995, 0, -4.781362093200738, lc};
Point(p84 + 19) = {767.3360197129995, 0, -5.046268905700719, lc};
p85 = newp;
Point(p85 + 1) = {761.4271138708193, 0, -5.816153517240574, lc};
Point(p85 + 2) = {757.6355725376794, 0, -6.307799521760457, lc};
Point(p85 + 3) = {753.9316118805795, 0, -6.786037477560348, lc};
Point(p85 + 4) = {750.3152318995194, 0, -7.250867384640245, lc};
Point(p85 + 5) = {746.7864325944995, 0, -7.702289243000149, lc};
Point(p85 + 6) = {743.3452139655195, 0, -8.140303052640061, lc};
Point(p85 + 7) = {739.9915760125796, 0, -8.564908813559976, lc};
Point(p85 + 8) = {736.7255187356797, 0, -8.976106525759899, lc};
Point(p85 + 9) = {733.5470421348197, 0, -9.373896189239829, lc};
Point(p85 + 10) = {730.4561462099998, 0, -9.758277803999766, lc};
Point(p85 + 11) = {727.4528309612198, 0, -10.12925137003971, lc};
Point(p85 + 12) = {724.5370963884799, 0, -10.48681688735966, lc};
Point(p85 + 13) = {721.70894249178, 0, -10.83097435595961, lc};
Point(p85 + 14) = {718.9683692711201, 0, -11.16172377583958, lc};
Point(p85 + 15) = {716.3153767265002, 0, -11.47906514699955, lc};
Point(p85 + 16) = {713.7499648579203, 0, -11.78299846943952, lc};
Point(p85 + 17) = {711.2721336653804, 0, -12.07352374315951, lc};
Point(p85 + 18) = {708.8818831488804, 0, -12.3506409681595, lc};
Point(p85 + 19) = {706.5792133084205, 0, -12.61435014443949, lc};
p86 = newp;
Point(p86 + 1) = {699.7592481108807, 0, -13.3783210479595, lc};
Point(p86 + 2) = {695.1031301459205, 0, -13.8918378702395, lc};
Point(p86 + 3) = {690.3957702491206, 0, -14.4052017388395, lc};
Point(p86 + 4) = {685.6371684204805, 0, -14.9184126537595, lc};
Point(p86 + 5) = {680.8273246600004, 0, -15.43147061499951, lc};
Point(p86 + 6) = {675.9662389676804, 0, -15.94437562255951, lc};
Point(p86 + 7) = {671.0539113435203, 0, -16.45712767643951, lc};
Point(p86 + 8) = {666.0903417875204, 0, -16.96972677663952, lc};
Point(p86 + 9) = {661.0755302996803, 0, -17.48217292315952, lc};
Point(p86 + 10) = {656.0094768800003, 0, -17.99446611599952, lc};
Point(p86 + 11) = {650.8921815284803, 0, -18.50660635515953, lc};
Point(p86 + 12) = {645.7236442451203, 0, -19.01859364063953, lc};
Point(p86 + 13) = {640.5038650299202, 0, -19.53042797243953, lc};
Point(p86 + 14) = {635.2328438828803, 0, -20.04210935055954, lc};
Point(p86 + 15) = {629.9105808040003, 0, -20.55363777499954, lc};
Point(p86 + 16) = {624.5370757932803, 0, -21.06501324575954, lc};
Point(p86 + 17) = {619.1123288507204, 0, -21.57623576283955, lc};
Point(p86 + 18) = {613.6363399763203, 0, -22.08730532623955, lc};
Point(p86 + 19) = {608.1091091700804, 0, -22.59822193595956, lc};
p87 = newp;
Point(p87 + 1) = {590.4173525244403, 0, -24.2023597782995, lc};
Point(p87 + 2) = {578.5045775329603, 0, -25.25650535319943, lc};
Point(p87 + 3) = {566.7923114575602, 0, -26.27142231669937, lc};
Point(p87 + 4) = {555.2805542982402, 0, -27.24711066879932, lc};
Point(p87 + 5) = {543.9693060550002, 0, -28.18357040949927, lc};
Point(p87 + 6) = {532.8585667278401, 0, -29.08080153879923, lc};
Point(p87 + 7) = {521.94833631676, 0, -29.93880405669919, lc};
Point(p87 + 8) = {511.2386148217601, 0, -30.75757796319916, lc};
Point(p87 + 9) = {500.72940224284, 0, -31.53712325829913, lc};
Point(p87 + 10) = {490.4206985799999, 0, -32.27743994199911, lc};
Point(p87 + 11) = {480.3125038332398, 0, -32.9785280142991, lc};
Point(p87 + 12) = {470.4048180025598, 0, -33.64038747519909, lc};
Point(p87 + 13) = {460.6976410879598, 0, -34.26301832469908, lc};
Point(p87 + 14) = {451.1909730894397, 0, -34.84642056279909, lc};
Point(p87 + 15) = {441.8848140069997, 0, -35.3905941894991, lc};
Point(p87 + 16) = {432.7791638406396, 0, -35.89553920479911, lc};
Point(p87 + 17) = {423.8740225903596, 0, -36.36125560869912, lc};
Point(p87 + 18) = {415.1693902561595, 0, -36.78774340119915, lc};
Point(p87 + 19) = {406.6652668380395, 0, -37.17500258229918, lc};
p88 = newp;
Point(p88 + 1) = {388.4082186050996, 0, -37.89996495405926, lc};
Point(p88 + 2) = {378.4254570635997, 0, -38.23498266103932, lc};
Point(p88 + 3) = {368.4133677114998, 0, -38.52808627293937, lc};
Point(p88 + 4) = {358.3719505487999, 0, -38.77927578975942, lc};
Point(p88 + 5) = {348.3012055755, 0, -38.98855121149946, lc};
Point(p88 + 6) = {338.2011327916001, 0, -39.1559125381595, lc};
Point(p88 + 7) = {328.0717321971001, 0, -39.28135976973954, lc};
Point(p88 + 8) = {317.9130037920002, 0, -39.36489290623958, lc};
Point(p88 + 9) = {307.7249475763002, 0, -39.40651194765962, lc};
Point(p88 + 10) = {297.5075635500003, 0, -39.40621689399965, lc};
Point(p88 + 11) = {287.2608517131004, 0, -39.36400774525968, lc};
Point(p88 + 12) = {276.9848120656004, 0, -39.27988450143971, lc};
Point(p88 + 13) = {266.6794446075004, 0, -39.15384716253973, lc};
Point(p88 + 14) = {256.3447493388004, 0, -38.98589572855976, lc};
Point(p88 + 15) = {245.9807262595004, 0, -38.77603019949979, lc};
Point(p88 + 16) = {235.5873753696005, 0, -38.5242505753598, lc};
Point(p88 + 17) = {225.1646966691004, 0, -38.23055685613982, lc};
Point(p88 + 18) = {214.7126901580004, 0, -37.89494904183984, lc};
Point(p88 + 19) = {204.2313558363004, 0, -37.51742713245985, lc};
p89 = newp;
Point(p89 + 1) = {187.9337032437603, 0, -36.84967611621993, lc};
Point(p89 + 2) = {182.2184246822403, 0, -36.59200098488, lc};
Point(p89 + 3) = {176.5748580194402, 0, -36.32496573398005, lc};
Point(p89 + 4) = {171.0030032553603, 0, -36.0485703635201, lc};
Point(p89 + 5) = {165.5028603900003, 0, -35.76281487350015, lc};
Point(p89 + 6) = {160.0744294233603, 0, -35.46769926392018, lc};
Point(p89 + 7) = {154.7177103554403, 0, -35.16322353478021, lc};
Point(p89 + 8) = {149.4327031862403, 0, -34.84938768608022, lc};
Point(p89 + 9) = {144.2194079157603, 0, -34.52619171782023, lc};
Point(p89 + 10) = {139.0778245440004, 0, -34.19363563000024, lc};
Point(p89 + 11) = {134.0079530709604, 0, -33.85171942262023, lc};
Point(p89 + 12) = {129.0097934966404, 0, -33.50044309568023, lc};
Point(p89 + 13) = {124.0833458210404, 0, -33.1398066491802, lc};
Point(p89 + 14) = {119.2286100441605, 0, -32.76981008312018, lc};
Point(p89 + 15) = {114.4455861660005, 0, -32.39045339750014, lc};
Point(p89 + 16) = {109.7342741865606, 0, -32.0017365923201, lc};
Point(p89 + 17) = {105.0946741058407, 0, -31.60365966758005, lc};
Point(p89 + 18) = {100.5267859238407, 0, -31.19622262327999, lc};
Point(p89 + 19) = {96.03060964056077, 0, -30.77942545941993, lc};
p90 = newp;
Point(p90 + 1) = {88.8500474038007, 0, -30.07930080605981, lc};
Point(p90 + 2) = {86.11683805680067, 0, -29.80078723863978, lc};
Point(p90 + 3) = {83.40651721500055, 0, -29.51772747373974, lc};
Point(p90 + 4) = {80.71908487840054, 0, -29.23012151135971, lc};
Point(p90 + 5) = {78.05454104700043, 0, -28.93796935149968, lc};
Point(p90 + 6) = {75.41288572080035, 0, -28.64127099415965, lc};
Point(p90 + 7) = {72.79411889980034, 0, -28.34002643933964, lc};
Point(p90 + 8) = {70.19824058400027, 0, -28.03423568703962, lc};
Point(p90 + 9) = {67.6252507734003, 0, -27.72389873725962, lc};
Point(p90 + 10) = {65.07514946800023, 0, -27.40901558999961, lc};
Point(p90 + 11) = {62.54793666780019, 0, -27.08958624525961, lc};
Point(p90 + 12) = {60.04361237280024, 0, -26.76561070303962, lc};
Point(p90 + 13) = {57.5621765830002, 0, -26.43708896333962, lc};
Point(p90 + 14) = {55.10362929840027, 0, -26.10402102615964, lc};
Point(p90 + 15) = {52.66797051900026, 0, -25.76640689149966, lc};
Point(p90 + 16) = {50.25520024480025, 0, -25.42424655935968, lc};
Point(p90 + 17) = {47.86531847580034, 0, -25.07754002973971, lc};
Point(p90 + 18) = {45.49832521200036, 0, -24.72628730263974, lc};
Point(p90 + 19) = {43.15422045340046, 0, -24.37048837805978, lc};
p91 = newp;
Point(p91 + 1) = {40.0405929289205, 0, -23.88515644393994, lc};
Point(p91 + 2) = {39.26527617968041, 0, -23.76168569896004, lc};
Point(p91 + 3) = {38.50705395228042, 0, -23.63973102106013, lc};
Point(p91 + 4) = {37.76592624672034, 0, -23.51929241024019, lc};
Point(p91 + 5) = {37.04189306300037, 0, -23.40036986650025, lc};
Point(p91 + 6) = {36.33495440112041, 0, -23.2829633898403, lc};
Point(p91 + 7) = {35.64511026108034, 0, -23.16707298026031, lc};
Point(p91 + 8) = {34.97236064288038, 0, -23.05269863776032, lc};
Point(p91 + 9) = {34.31670554652034, 0, -22.9398403623403, lc};
Point(p91 + 10) = {33.67814497200039, 0, -22.82849815400028, lc};
Point(p91 + 11) = {33.05667891932045, 0, -22.71867201274025, lc};
Point(p91 + 12) = {32.45230738848042, 0, -22.61036193856017, lc};
Point(p91 + 13) = {31.86503037948049, 0, -22.50356793146011, lc};
Point(p91 + 14) = {31.29484789232048, 0, -22.39828999144001, lc};
Point(p91 + 15) = {30.74175992700055, 0, -22.2945281184999, lc};
Point(p91 + 16) = {30.20576648352063, 0, -22.19228231263978, lc};
Point(p91 + 17) = {29.68686756188064, 0, -22.09155257385964, lc};
Point(p91 + 18) = {29.18506316208073, 0, -21.99233890215949, lc};
Point(p91 + 19) = {28.70035328412076, 0, -21.8946412975393, lc};
p92 = newp;
Point(p92 + 1) = {27.50581983082088, 0, -21.64477604343917, lc};
Point(p92 + 2) = {26.7908694128808, 0, -21.48841663935919, lc};
Point(p92 + 3) = {26.08788667418082, 0, -21.32938154775924, lc};
Point(p92 + 4) = {25.39687161472075, 0, -21.16767076863926, lc};
Point(p92 + 5) = {24.71782423450077, 0, -21.00328430199931, lc};
Point(p92 + 6) = {24.05074453352079, 0, -20.83622214783935, lc};
Point(p92 + 7) = {23.39563251178072, 0, -20.66648430615938, lc};
Point(p92 + 8) = {22.75248816928075, 0, -20.49407077695942, lc};
Point(p92 + 9) = {22.12131150602067, 0, -20.31898156023944, lc};
Point(p92 + 10) = {21.5021025220007, 0, -20.14121665599949, lc};
Point(p92 + 11) = {20.89486121722072, 0, -19.96077606423953, lc};
Point(p92 + 12) = {20.29958759168066, 0, -19.77765978495955, lc};
Point(p92 + 13) = {19.71628164538068, 0, -19.5918678181596, lc};
Point(p92 + 14) = {19.14494337832063, 0, -19.40340016383961, lc};
Point(p92 + 15) = {18.58557279050065, 0, -19.21225682199966, lc};
Point(p92 + 16) = {18.03816988192067, 0, -19.0184377926397, lc};
Point(p92 + 17) = {17.50273465258062, 0, -18.82194307575971, lc};
Point(p92 + 18) = {16.97926710248064, 0, -18.62277267135975, lc};
Point(p92 + 19) = {16.46776723162059, 0, -18.42092657943977, lc};
p93 = newp;
Point(p93 + 1) = {15.32351897042057, 0, -17.94129150197985, lc};
Point(p93 + 2) = {14.69055461928045, 0, -17.65868113591985, lc};
Point(p93 + 3) = {14.06934198658042, 0, -17.36857370181989, lc};
Point(p93 + 4) = {13.45988107232031, 0, -17.07096919967989, lc};
Point(p93 + 5) = {12.86217187650031, 0, -16.76586762949994, lc};
Point(p93 + 6) = {12.27621439912031, 0, -16.45326899127999, lc};
Point(p93 + 7) = {11.70200864018023, 0, -16.13317328501999, lc};
Point(p93 + 8) = {11.13955459968025, 0, -15.80558051072004, lc};
Point(p93 + 9) = {10.58885227762019, 0, -15.47049066838004, lc};
Point(p93 + 10) = {10.04990167400023, 0, -15.12790375800009, lc};
Point(p93 + 11) = {9.522702788820272, 0, -14.77781977958014, lc};
Point(p93 + 12) = {9.007255622080248, 0, -14.42023873312014, lc};
Point(p93 + 13) = {8.503560173780308, 0, -14.0551606186202, lc};
Point(p93 + 14) = {8.011616443920307, 0, -13.6825854360802, lc};
Point(p93 + 15) = {7.531424432500383, 0, -13.30251318550025, lc};
Point(p93 + 16) = {7.06298413952047, 0, -12.91494386688031, lc};
Point(p93 + 17) = {6.606295564980499, 0, -12.51987748022031, lc};
Point(p93 + 18) = {6.161358708880602, 0, -12.11731402552037, lc};
Point(p93 + 19) = {5.728173571220653, 0, -11.70725350278037, lc};
p94 = newp;
Point(p94 + 1) = {4.798041203660802, 0, -10.75918458890037, lc};
Point(p94 + 2) = {4.314959325040761, 0, -10.22509711080025, lc};
Point(p94 + 3) = {3.857494516140784, 0, -9.687433477700205, lc};
Point(p94 + 4) = {3.425646776960742, 0, -9.146193689600093, lc};
Point(p94 + 5) = {3.019416107500757, 0, -8.601377746500065, lc};
Point(p94 + 6) = {2.638802507760767, 0, -8.052985648400044, lc};
Point(p94 + 7) = {2.283805977740721, 0, -7.501017395299952, lc};
Point(p94 + 8) = {1.954426517440722, 0, -6.945472987199945, lc};
Point(p94 + 9) = {1.650664126860675, 0, -6.386352424099865, lc};
Point(p94 + 10) = {1.372518806000667, 0, -5.823655705999872, lc};
Point(p94 + 11) = {1.119990554860653, 0, -5.257382832899887, lc};
Point(p94 + 12) = {0.8930793734406031, 0, -4.687533804799827, lc};
Point(p94 + 13) = {0.6917852617405815, 0, -4.114108621699855, lc};
Point(p94 + 14) = {0.5161082197605298, 0, -3.537107283599808, lc};
Point(p94 + 15) = {0.3660482475004994, 0, -2.95652979049985, lc};
Point(p94 + 16) = {0.2416053449604636, 0, -2.372376142399901, lc};
Point(p94 + 17) = {0.1427795121404083, 0, -1.784646339299874, lc};
Point(p94 + 18) = {0.06957074904036364, 0, -1.193340381199937, lc};
Point(p94 + 19) = {0.02197905566030656, 0, -0.5984582680999218, lc};
Spline(94) = {97, p84 + 1, p84 + 2, p84 + 3, p84 + 4, p84 + 5, p84 + 6, p84 + 7, p84 + 8, p84 + 9, p84 + 10, p84 + 11, p84 + 12, p84 + 13, p84 + 14, p84 + 15, p84 + 16, p84 + 17, p84 + 18, p84 + 19, 84, p85 + 1, p85 + 2, p85 + 3, p85 + 4, p85 + 5, p85 + 6, p85 + 7, p85 + 8, p85 + 9, p85 + 10, p85 + 11, p85 + 12, p85 + 13, p85 + 14, p85 + 15, p85 + 16, p85 + 17, p85 + 18, p85 + 19, 85, p86 + 1, p86 + 2, p86 + 3, p86 + 4, p86 + 5, p86 + 6, p86 + 7, p86 + 8, p86 + 9, p86 + 10, p86 + 11, p86 + 12, p86 + 13, p86 + 14, p86 + 15, p86 + 16, p86 + 17, p86 + 18, p86 + 19, 86, p87 + 1, p87 + 2, p87 + 3, p87 + 4, p87 + 5, p87 + 6, p87 + 7, p87 + 8, p87 + 9, p87 + 10, p87 + 11, p87 + 12, p87 + 13, p87 + 14, p87 + 15, p87 + 16, p87 + 17, p87 + 18, p87 + 19, 87, p88 + 1, p88 + 2, p88 + 3, p88 + 4, p88 + 5, p88 + 6, p88 + 7, p88 + 8, p88 + 9, p88 + 10, p88 + 11, p88 + 12, p88 + 13, p88 + 14, p88 + 15, p88 + 16, p88 + 17, p88 + 18, p88 + 19, 88, p89 + 1, p89 + 2, p89 + 3, p89 + 4, p89 + 5, p89 + 6, p89 + 7, p89 + 8, p89 + 9, p89 + 10, p89 + 11, p89 + 12, p89 + 13, p89 + 14, p89 + 15, p89 + 16, p89 + 17, p89 + 18, p89 + 19, 89, p90 + 1, p90 + 2, p90 + 3, p90 + 4, p90 + 5, p90 + 6, p90 + 7, p90 + 8, p90 + 9, p90 + 10, p90 + 11, p90 + 12, p90 + 13, p90 + 14, p90 + 15, p90 + 16, p90 + 17, p90 + 18, p90 + 19, 90, p91 + 1, p91 + 2, p91 + 3, p91 + 4, p91 + 5, p91 + 6, p91 + 7, p91 + 8, p91 + 9, p91 + 10, p91 + 11, p91 + 12, p91 + 13, p91 + 14, p91 + 15, p91 + 16, p91 + 17, p91 + 18, p91 + 19, 91, p92 + 1, p92 + 2, p92 + 3, p92 + 4, p92 + 5, p92 + 6, p92 + 7, p92 + 8, p92 + 9, p92 + 10, p92 + 11, p92 + 12, p92 + 13, p92 + 14, p92 + 15, p92 + 16, p92 + 17, p92 + 18, p92 + 19, 92, p93 + 1, p93 + 2, p93 + 3, p93 + 4, p93 + 5, p93 + 6, p93 + 7, p93 + 8, p93 + 9, p93 + 10, p93 + 11, p93 + 12, p93 + 13, p93 + 14, p93 + 15, p93 + 16, p93 + 17, p93 + 18, p93 + 19, 93, p94 + 1, p94 + 2, p94 + 3, p94 + 4, p94 + 5, p94 + 6, p94 + 7, p94 + 8, p94 + 9, p94 + 10, p94 + 11, p94 + 12, p94 + 13, p94 + 14, p94 + 15, p94 + 16, p94 + 17, p94 + 18, p94 + 19, 72};
p96 = newp;
Point(p96 + 1) = {710.7083018727714, 1206.435838571859, 0, lc};
Point(p96 + 2) = {733.1505110679936, 1210.856085755611, 0, lc};
Point(p96 + 3) = {755.8677523744733, 1213.596942661292, 0, lc};
Point(p96 + 4) = {778.6795557037401, 1215.407254420549, 0, lc};
Point(p96 + 5) = {801.5332871620499, 1216.582407542029, 0, lc};
Point(p96 + 6) = {824.40709649696, 1217.271994874927, 0, lc};
Point(p96 + 7) = {847.2894548024526, 1217.564959011336, 0, lc};
Point(p96 + 8) = {870.1737894875656, 1217.515472144298, 0, lc};
Point(p96 + 9) = {893.0554078523646, 1217.161973679226, 0, lc};
Point(p96 + 10) = {915.9310130683917, 1216.528804996173, 0, lc};
Point(p96 + 11) = {938.79784529238, 1215.632902395726, 0, lc};
Point(p96 + 12) = {961.6534184446242, 1214.484919989402, 0, lc};
Point(p96 + 13) = {984.495331374152, 1213.090943188693, 0, lc};
Point(p96 + 14) = {1007.321142362956, 1211.454379593287, 0, lc};
Point(p96 + 15) = {1030.128169295834, 1209.574410980704, 0, lc};
Point(p96 + 16) = {1052.913533148707, 1207.447621287421, 0, lc};
Point(p96 + 17) = {1075.673790948641, 1205.067638767249, 0, lc};
Point(p96 + 18) = {1098.405126941784, 1202.425223802985, 0, lc};
Point(p96 + 19) = {1121.102738535528, 1199.507984306286, 0, lc};

p98 = newp;
Point(p98 + 1) = {1120.939313011577, 1196.300000159887, -2.985902154953327, lc};
Point(p98 + 2) = {1098.109547992621, 1196.300000293032, -5.909689624748812, lc};
Point(p98 + 3) = {1075.238015580242, 1196.300000397784, -8.486351194256795, lc};
Point(p98 + 4) = {1052.341228055223, 1196.300000478362, -10.82826754988855, lc};
Point(p98 + 5) = {1029.426860909281, 1196.300000537778, -12.99187257748424, lc};
Point(p98 + 6) = {1006.499345358141, 1196.300000577707, -15.0114605364514, lc};
Point(p98 + 7) = {983.5593866403468, 1196.300000600178, -16.88448036672375, lc};
Point(p98 + 8) = {960.6044963302653, 1196.300000606056, -18.56691768492677, lc};
Point(p98 + 9) = {937.6326335674801, 1196.300000596177, -19.99368237288044, lc};
Point(p98 + 10) = {914.6430534945526, 1196.300000571559, -21.09544798273393, lc};
Point(p98 + 11) = {891.6384036233931, 1196.300000533635, -21.82075647412515, lc};
Point(p98 + 12) = {868.6246308483048, 1196.30000048421, -22.14879358296981, lc};
Point(p98 + 13) = {845.6086588967214, 1196.300000425578, -22.08090128444765, lc};
Point(p98 + 14) = {822.5966344430424, 1196.300000360244, -21.64358523763275, lc};
Point(p98 + 15) = {799.5939048246491, 1196.300000290882, -20.85649223059117, lc};
Point(p98 + 16) = {776.6067375786974, 1196.300000220255, -19.70291778228407, lc};
Point(p98 + 17) = {753.6469076072266, 1196.300000150908, -18.09634172123929, lc};
Point(p98 + 18) = {730.7431563710317, 1196.300000086467, -15.83254816545908, lc};
Point(p98 + 19) = {707.9676859011388, 1196.30000003223, -12.53513844745988, lc};
Spline(98) = {96, p98 + 1, p98 + 2, p98 + 3, p98 + 4, p98 + 5, p98 + 6, p98 + 7, p98 + 8, p98 + 9, p98 + 10, p98 + 11, p98 + 12, p98 + 13, p98 + 14, p98 + 15, p98 + 16, p98 + 17, p98 + 18, p98 + 19, 100};
Line(99) = {97, 96};
p100 = newp;
Point(p100 + 1) = {1120.939312894378, 1196.3, 2.985901524335504, lc};
Point(p100 + 2) = {1098.109548130685, 1196.3, 5.909691163331677, lc};
Point(p100 + 3) = {1075.238015297136, 1196.3, 8.486349218016006, lc};
Point(p100 + 4) = {1052.341286976302, 1196.3, 10.82893464111425, lc};
Point(p100 + 5) = {1029.426860846057, 1196.3, 12.9918727760095, lc};
Point(p100 + 6) = {1006.499345060785, 1196.3, 15.01145842314537, lc};
Point(p100 + 7) = {983.5594014224407, 1196.3, 16.88448933129655, lc};
Point(p100 + 8) = {960.6047353630337, 1196.3, 18.56706168210218, lc};
Point(p100 + 9) = {937.6327958617536, 1196.3, 19.99377886299474, lc};
Point(p100 + 10) = {914.643055493318, 1196.3, 21.09544739128192, lc};
Point(p100 + 11) = {891.6384035257805, 1196.3, 21.82075480296812, lc};
Point(p100 + 12) = {868.6246303768197, 1196.3, 22.14879423663963, lc};
Point(p100 + 13) = {845.6086110298144, 1196.3, 22.08129803584676, lc};
Point(p100 + 14) = {822.5966202442303, 1196.3, 21.64370746199618, lc};
Point(p100 + 15) = {799.593904892084, 1196.3, 20.85649223251036, lc};
Point(p100 + 16) = {776.6067372562781, 1196.3, 19.70291964201266, lc};
Point(p100 + 17) = {753.646947504478, 1196.3, 18.0961615464151, lc};
Point(p100 + 18) = {730.7431565251952, 1196.3, 15.83254711378859, lc};
Point(p100 + 19) = {707.967686381925, 1196.3, 12.5351368401368, lc};
Spline(100) = {96, p100 + 1, p100 + 2, p100 + 3, p100 + 4, p100 + 5, p100 + 6, p100 + 7, p100 + 8, p100 + 9, p100 + 10, p100 + 11, p100 + 12, p100 + 13, p100 + 14, p100 + 15, p100 + 16, p100 + 17, p100 + 18, p100 + 19, 100};
Line(101) = {100, 72};
Line(102) = {1, 72};
Line(103) = {97, 2};
Line(104) = {595,235};
Line(105) = {575,411};

Circle(2) = {3, p2 + 1, 1};
Circle(3) = {2, p2 + 1, 3};
Circle(4) = {2, p2 + 1, 24};
Circle(5) = {24, p2 + 1, 1};
Circle(6) = {1, p2 + 1, 56};
Circle(7) = {56, p2 + 1, 2};
Line Loop(104) = {7, 3, 2, 6};
Ruled Surface(105) = {104};
Line Loop(106) = {3, 2, -5, -4};
Ruled Surface(107) = {106};

Point(1001) = {868.624630613, 1196.3, 0};
Ellipse(112) = {575, 1001, 551, 551};
Ellipse(113) = {595, 1001, 551, 551};

Spline(114) = {100, p96 + 1, p96 + 2, p96 + 3, p96 + 4, p96 + 5, p96 + 6, p96 + 7, p96 + 8, p96 + 9, p96 + 10, p96 + 11, p96 + 12, p96 + 13, p96 + 14, p96 + 15, p96 + 16, p96 + 17, p96 + 18, p96 + 19, 96};
Split Line(100) {595};
Split Line(98) {575};



Split Line(114) {551};
Split Line(83) {235};
Split Line(94) {411};


Line Loop(125) = {4, 5, 102, 121, 122, 103};
Plane Surface(126) = {125};
Line Loop(127) = {6, 7, -103, 123, 124, -102};
Plane Surface(128) = {127};
Line Loop(129) = {101, 121, -104, 116};
Ruled Surface(130) = {129};
Line Loop(131) = {122, 99, 115, 104};
Ruled Surface(132) = {131};
Line Loop(133) = {105, -123, 99, 117};
Ruled Surface(134) = {133};
Line Loop(135) = {105, 124, -101, -118};
Ruled Surface(136) = {135};
Line Loop(137) = {120, 115, 113};
Ruled Surface(138) = {137};
Line Loop(139) = {120, 117, 112};
Ruled Surface(140) = {139};
Line Loop(141) = {116, 119, -113};
Ruled Surface(142) = {141};
Line Loop(143) = {118, 119, -112};
Ruled Surface(144) = {143};
Surface Loop(145) = {126, 107, 105, 128, 134, 136, 130, 132, 138, 140, 144, 142};
Volume(146) = {145};
Physical Surface("FARFIELD") = {107, 105};
Physical Surface("SYMMETRY") = {126, 128};
Physical Surface("WING") = {132, 134, 130, 136, 138, 144, 142};
Physical Volume("VOLUME") = {146};
